<svg xmlns="http://www.w3.org/2000/svg" viewBox="0 0 191.41 16.65"><defs><style>.cls-1{fill:#fff;}</style></defs><title>DownLoad_190_16</title><g id="图层_2" data-name="图层 2"><g id="图层_1-2" data-name="图层 1"><path class="cls-1" d="M41.67,14.77l-6.58-9v9H32.16V1h3l6.39,8.66V1H44.5V14.77Z"/><path class="cls-1" d="M47.23,14.77V1H57V3.56H50.17v2.9h6.67V9H50.17v3.14H57v2.59Z"/><path class="cls-1" d="M71.28,14.77V4.82l-3.89,10H66.11L62.22,4.82v10H59.28V1H63.4L66.75,9.6,70.1,1h4.13V14.77Z"/><path class="cls-1" d="M81.53,10.88V8.65h5v2.23Z"/><path class="cls-1" d="M93.79,14.77V1h5.44c4.32,0,7.32,2.75,7.32,6.88s-3,6.91-7.3,6.91Zm9.76-6.91a4,4,0,0,0-4.3-4.3H96.73v8.62h2.5A4.13,4.13,0,0,0,103.55,7.86Z"/><path class="cls-1" d="M107.93,9.77a5.29,5.29,0,0,1,10.57,0,5.29,5.29,0,0,1-10.57,0Zm7.84,0a2.58,2.58,0,1,0-5.11,0,2.58,2.58,0,1,0,5.11,0Z"/><path class="cls-1" d="M129.23,14.77,127.12,8,125,14.77H122.2l-3-10h2.73l1.86,6.72,2.19-6.72h2.34l2.19,6.72,1.86-6.72h2.75l-3,10Z"/><path class="cls-1" d="M143.13,14.77v-6a1.62,1.62,0,0,0-1.84-1.86A2.93,2.93,0,0,0,139,8v6.74h-2.62v-10H139V6.06a4.69,4.69,0,0,1,3.5-1.53,2.91,2.91,0,0,1,3.26,3.19v7.05Z"/><path class="cls-1" d="M148.3,14.77V1h2.95v11.2h5.83v2.59Z"/><path class="cls-1" d="M158.14,9.77a5.28,5.28,0,0,1,10.56,0,5.28,5.28,0,0,1-10.56,0Zm7.83,0a2.57,2.57,0,1,0-5.1,0,2.57,2.57,0,1,0,5.1,0Z"/><path class="cls-1" d="M176.66,14.77V13.71A4.06,4.06,0,0,1,173.5,15a3.31,3.31,0,0,1-3.45-3.31,3.17,3.17,0,0,1,3.45-3.23,4.09,4.09,0,0,1,3.16,1.22V8.44c0-1-.87-1.67-2.19-1.67A4.16,4.16,0,0,0,171.6,8l-1-1.84a6.44,6.44,0,0,1,4.37-1.58c2.29,0,4.38.91,4.38,3.79v6.45Zm0-2.4V11.13a2.63,2.63,0,0,0-2.11-.89c-1,0-1.88.56-1.88,1.51s.85,1.49,1.88,1.49A2.62,2.62,0,0,0,176.66,12.37Z"/><path class="cls-1" d="M188.76,14.77V13.49A3.86,3.86,0,0,1,185.68,15c-2.5,0-4.43-1.91-4.43-5.25s1.88-5.24,4.43-5.24a3.8,3.8,0,0,1,3.08,1.53V1h2.65V14.77Zm0-3.23V8a2.87,2.87,0,0,0-2.26-1.14A2.61,2.61,0,0,0,184,9.77a2.61,2.61,0,0,0,2.54,2.91A2.87,2.87,0,0,0,188.76,11.54Z"/><polyline class="cls-1" points="0 16.65 13.71 16.65 13.71 14.69 0 14.69"/><polygon class="cls-1" points="13.71 5.88 9.79 5.88 9.79 0 3.92 0 3.92 5.88 0 5.88 6.85 12.73 13.71 5.88"/></g></g></svg>