<svg xmlns="http://www.w3.org/2000/svg" viewBox="0 0 41.87 41.86"><defs><style>.cls-1{fill:#20b5ac;}</style></defs><title>texing2_42_42</title><g id="图层_2" data-name="图层 2"><g id="图层_1-2" data-name="图层 1"><path class="cls-1" d="M14.23,0H0V41.86H39.47v-8H36.72v5.3h-34V2.75H14.23Z"/><path class="cls-1" d="M26.75,4.19,32,7.53l-14.9,23.2-4.15.71-1.06-4.07L26.75,4.19M25.92.38l-17,26.53,2,7.68,7.84-1.36L35.77,6.72,25.92.39Z"/><path class="cls-1" d="M22.36,8.54l1.48-2.31L31.32,11l-1.49,2.31Z"/><path class="cls-1" d="M41.75,30.61a6.82,6.82,0,0,1-5-2.43A10.56,10.56,0,0,1,34.25,20a14.91,14.91,0,0,1,3-7.29c1.09-1.62,1.95-2.91,1.89-5a4.55,4.55,0,0,0-3.59-4.42,3,3,0,0,0-3.4,1.52l-2.5-1.16a5.63,5.63,0,0,1,6.46-3,7.34,7.34,0,0,1,5.76,7c.1,3-1.15,4.79-2.35,6.58A12.62,12.62,0,0,0,37,20.32a7.86,7.86,0,0,0,1.8,6,4.05,4.05,0,0,0,3,1.51Z"/></g></g></svg>