<svg xmlns="http://www.w3.org/2000/svg" viewBox="0 0 46.23 51.74"><defs><style>.cls-1{fill:#20b5ac;}</style></defs><title>texing1_46_50</title><g id="图层_2" data-name="图层 2"><g id="图层_1-2" data-name="图层 1"><path class="cls-1" d="M19.92,46.21a1.59,1.59,0,0,1-.81-.22L7.69,39.4a1.62,1.62,0,0,1,1.62-2.81l11.42,6.6a1.62,1.62,0,0,1-.81,3Z"/><path class="cls-1" d="M37.73,15.36a1.66,1.66,0,0,1-.81-.21L25.5,8.55a1.62,1.62,0,1,1,1.62-2.8l11.42,6.59a1.62,1.62,0,0,1-.81,3Z"/><path class="cls-1" d="M23.12,10.62a5.31,5.31,0,1,1,5.3-5.31,5.32,5.32,0,0,1-5.3,5.31Zm0-7.38a2.07,2.07,0,1,0,2.06,2.07,2.07,2.07,0,0,0-2.06-2.07ZM5.3,20.9A5.31,5.31,0,0,1,3.93,10.46a5.3,5.3,0,0,1,6.5,3.76,5.23,5.23,0,0,1-.53,4A5.32,5.32,0,0,1,5.3,20.9Zm0-7.38a2.07,2.07,0,1,0,1.79,3.1,2,2,0,0,0-.76-2.82,2.07,2.07,0,0,0-1-.28Zm0,27.94A5.31,5.31,0,1,1,6.68,31,5.31,5.31,0,0,1,5.32,41.46Zm0-7.38a2.1,2.1,0,0,0-1,.28A2.07,2.07,0,1,0,6.34,38a2.11,2.11,0,0,0,1-1.26,2.05,2.05,0,0,0-.21-1.57,2.09,2.09,0,0,0-1.26-1,2.35,2.35,0,0,0-.54-.07ZM23.12,51.74a5.31,5.31,0,1,1,5.3-5.31,5.31,5.31,0,0,1-5.3,5.31Zm0-7.38a2.07,2.07,0,1,0,2.06,2.07,2.07,2.07,0,0,0-2.06-2.07Zm17.79-2.9A5.31,5.31,0,0,1,39.55,31a5.31,5.31,0,1,1,1.36,10.44Zm-1-3.52a2.07,2.07,0,1,0,.5-3.79,2.09,2.09,0,0,0-1.26,1,2,2,0,0,0,.76,2.82Zm1-17A5.31,5.31,0,0,1,38.27,11a5.3,5.3,0,0,1,7.25,1.95,5.3,5.3,0,0,1-4.59,8Zm0-7.38a2,2,0,0,0-1,.28,2.07,2.07,0,1,0,2.83.75,2.1,2.1,0,0,0-1.26-1,2,2,0,0,0-.54-.07Z"/><path class="cls-1" d="M40.92,34.08a1.62,1.62,0,0,1-1.62-1.62V19.28a1.62,1.62,0,1,1,3.24,0V32.46a1.61,1.61,0,0,1-1.62,1.62ZM26.31,46.21a1.62,1.62,0,0,1-.81-3l11.42-6.6a1.62,1.62,0,0,1,1.62,2.81L27.12,46a1.64,1.64,0,0,1-.81.22Zm-21-12.13a1.61,1.61,0,0,1-1.62-1.62V19.28a1.62,1.62,0,0,1,3.24,0V32.46a1.62,1.62,0,0,1-1.62,1.62ZM8.5,15.36a1.62,1.62,0,0,1-.81-3L19.11,5.75a1.62,1.62,0,1,1,1.62,2.8L9.31,15.15a1.6,1.6,0,0,1-.81.21ZM23.07,27.49a1.57,1.57,0,0,1-.81-.22,1.62,1.62,0,0,1-.81-1.4V9a1.62,1.62,0,0,1,3.24,0V23.07l12.23-7a1.61,1.61,0,1,1,1.61,2.8L23.88,27.27a1.57,1.57,0,0,1-.81.22Z"/><path class="cls-1" d="M23.07,27.49a1.62,1.62,0,0,1-.81-.22L7.69,18.84A1.62,1.62,0,0,1,9.31,16l14.57,8.43a1.62,1.62,0,0,1-.81,3Z"/><path class="cls-1" d="M8.5,35.92a1.62,1.62,0,0,1-.81-3l14.57-8.43a1.62,1.62,0,1,1,1.62,2.8L9.31,35.71a1.66,1.66,0,0,1-.81.21Z"/><path class="cls-1" d="M23.11,44.36a1.61,1.61,0,0,1-1.62-1.61l0-16.88a1.62,1.62,0,0,1,2.43-1.4l14.65,8.44a1.61,1.61,0,1,1-1.61,2.8l-12.22-7,0,14.06a1.61,1.61,0,0,1-1.62,1.62Z"/></g></g></svg>