<svg xmlns="http://www.w3.org/2000/svg" viewBox="0 0 47.37 44.42"><defs><style>.cls-1{fill:#20b5ac;}</style></defs><title>texing3_47_44</title><g id="图层_2" data-name="图层 2"><g id="图层_1-2" data-name="图层 1"><path class="cls-1" d="M43.82,5.9A15.92,15.92,0,0,0,21.43,3.55L16.19,7.79,18.81,11l5.24-4.25a11.76,11.76,0,0,1,14.8,18.28L33.23,29.6l2.62,3.24,5.62-4.55A15.92,15.92,0,0,0,43.82,5.9ZM23.32,37.64A11.76,11.76,0,0,1,8.52,19.36l5.77-4.67-2.62-3.24L5.9,16.13a15.92,15.92,0,1,0,20,24.74l5.46-4.43-2.61-3.23Z"/><path class="cls-1" d="M31.63,13.17l2.67,3.2L16.42,31.26l-2.66-3.2Z"/></g></g></svg>