<svg xmlns="http://www.w3.org/2000/svg" viewBox="0 0 64 64"><defs><style>.cls-1{fill:#f5a81c;}.cls-2{fill:#fff;}</style></defs><title>asset_1_64</title><g id="图层_2" data-name="图层 2"><g id="图层_1-2" data-name="图层 1"><circle class="cls-1" cx="32" cy="32" r="32"/><path class="cls-2" d="M37.61,31,37.55,31c-.41-.32-.84-.62-1.28-.9L36.1,30a14.79,14.79,0,0,0-3-1.39l-.54-.18h0l.11-.07h0A8.37,8.37,0,0,0,29.56,13l-.13,0-.28,0-.23,0-.66,0h-.63A8.36,8.36,0,0,0,23.84,28.4,15.22,15.22,0,0,0,13,43V43h0v1.9H43.27a16,16,0,0,0,.13-2A15.17,15.17,0,0,0,37.61,31ZM21.74,21.27a6.47,6.47,0,1,1,6.47,6.46A6.47,6.47,0,0,1,21.74,21.27ZM41.51,43H14.9V43a13.31,13.31,0,1,1,26.61,0Z"/><path class="cls-2" d="M28.26,11.08h0Z"/><path class="cls-2" d="M51,39.78a12.17,12.17,0,0,0-8.33-11.49,6.85,6.85,0,0,0-3.86-12.5l-.41,0h-.08l-.36,0h0a7.43,7.43,0,0,0-.82.16,10.8,10.8,0,0,1,.8,1.77,4.6,4.6,0,0,1,.91-.09A4.95,4.95,0,1,1,36.57,27c-.18.25-.38.5-.58.74a17.1,17.1,0,0,1,2.66,1.69H39a10.36,10.36,0,0,1,10.2,10.31H45a17.51,17.51,0,0,1,.25,1.91H51V39.78Z"/></g></g></svg>