<svg xmlns="http://www.w3.org/2000/svg" viewBox="0 0 64 64"><defs><style>.cls-1{fill:#3bb8e9;}.cls-2{fill:#fff;}</style></defs><title>asset_3_64</title><g id="图层_2" data-name="图层 2"><g id="图层_1-2" data-name="图层 1"><circle class="cls-1" cx="32" cy="32" r="32"/><path class="cls-2" d="M28.66,32.65l-12.8-7.16a1.28,1.28,0,0,0-.81-.19,1.92,1.92,0,0,0-1.8,2V41.12a4.1,4.1,0,0,0,1.89,3.44l12.71,7.16a1.28,1.28,0,0,0,.81.19,2,2,0,0,0,1.81-2v-14a3.51,3.51,0,0,0-1.81-3.26ZM16,42a1,1,0,0,1-.36-.91V28l12,6.89a1,1,0,0,1,.37.91V49.11L16,42Z"/><path class="cls-2" d="M48.86,25.39a2.65,2.65,0,0,0-.81.19L35.34,32.74a4.09,4.09,0,0,0-1.9,3.45V50.05a1.86,1.86,0,0,0,1.8,2,2.39,2.39,0,0,0,.82-.19l12.71-7.16a3.93,3.93,0,0,0,2-3.44V27.35a1.93,1.93,0,0,0-1.89-2Zm-.47,16.12a1.1,1.1,0,0,1-.4.91L36,49.16V35.92a1.11,1.11,0,0,1,.39-.91l12-6.76Z"/><path class="cls-2" d="M47.69,20.93a1.27,1.27,0,0,0-.82-1.4l-13-7.07A4.85,4.85,0,0,0,32,12a7.89,7.89,0,0,0-2,.46l-13,7a1.62,1.62,0,0,0-.9,1.4A1.34,1.34,0,0,0,17,22.23l13,7a4.75,4.75,0,0,0,2,.46,7.48,7.48,0,0,0,2-.46l13-6.88a1.41,1.41,0,0,0,.82-1.4ZM31.23,27,18.86,20.77l12.22-6.32a1.72,1.72,0,0,1,1.44,0L45,21,32.67,27a1.42,1.42,0,0,1-.72.21,1.79,1.79,0,0,1-.72-.21Z"/></g></g></svg>