<svg xmlns="http://www.w3.org/2000/svg" viewBox="0 0 64 64"><defs><style>.cls-1{fill:#06ccbb;}.cls-2{fill:#fff;}</style></defs><title>asset_2_64</title><g id="图层_2" data-name="图层 2"><g id="图层_1-2" data-name="图层 1"><circle class="cls-1" cx="32" cy="32" r="32"/><path class="cls-2" d="M32,52.46l-.43-.17C17.61,46.9,16,39.85,16,35V16.56l1.25,0c9.69.33,13.82-4.05,13.86-4.09l.89-1,.89,1s4,4.11,12.83,4.11h0l1,0,1.25,0V35c0,4.83-1.61,11.88-15.57,17.27ZM18.41,19V35c0,2.6,0,9.46,13.59,14.86C45.59,44.48,45.59,37.62,45.59,35V19C38.07,19,33.74,16.32,32,14.94,30.26,16.32,25.93,19,18.41,19Zm2.8,14,2.48-2,4.95,3.65s6.84-7.07,13.44-10.37L43,25.35s-8.25,6.84-12.49,15.92Z"/></g></g></svg>